<svg width="116" height="25" viewBox="0 0 116 25" fill="none" xmlns="http://www.w3.org/2000/svg">
<g clip-path="url(#clip0_11594_5822)">
<path d="M41.0508 19.7419H43.5523L44.134 12.0439C44.1922 11.1325 44.1534 9.89151 44.1534 9.89151H44.1922C44.1922 9.89151 44.6188 11.2488 44.9484 12.0439L47.159 17.3763H49.3501L51.58 12.0439C51.9097 11.2488 52.3169 9.9109 52.3169 9.9109H52.3556C52.3556 9.9109 52.3169 11.1325 52.375 12.0439L52.9567 19.7419H55.4387L54.3335 5.97461H51.6576L48.9623 12.7807C48.652 13.5951 48.2836 14.7973 48.2836 14.7973H48.2448C48.2448 14.7973 47.857 13.5951 47.5468 12.7807L44.8515 5.97461H42.1754L41.0508 19.7419ZM56.6395 14.7973C56.6395 17.609 58.6755 19.9746 61.9525 19.9746C64.4151 19.9746 65.9276 18.5591 65.9276 18.5591L64.9774 16.7946C64.9774 16.7946 63.717 17.8804 62.127 17.8804C60.6533 17.8804 59.3154 16.9885 59.1602 15.2627H65.9857C65.9857 15.2627 66.0439 14.6034 66.0439 14.3126C66.0439 11.6948 64.512 9.62004 61.6616 9.62004C58.7143 9.62004 56.6395 11.753 56.6395 14.7973ZM59.2378 13.5757C59.4705 12.2959 60.3431 11.5203 61.6035 11.5203C62.6893 11.5203 63.5231 12.2378 63.5619 13.5757H59.2378ZM67.7253 16.1159C67.7253 19.4317 70.4594 19.8389 71.8361 19.8389C72.3015 19.8389 72.5923 19.7807 72.5923 19.7807V17.6283C72.5923 17.6283 72.4178 17.6671 72.1463 17.6671C71.4677 17.6671 70.1879 17.4344 70.1879 15.8056V11.9663H72.4372V10.0079H70.1879V7.15743H67.7835V10.0079H66.4455V11.9663H67.7253V16.1159ZM73.8322 19.7419H76.2948V15.825C76.2948 15.2433 76.353 14.7004 76.5081 14.2156C76.9735 12.7419 78.1563 12.1408 79.2034 12.1408C79.533 12.1408 79.7851 12.1796 79.7851 12.1796V9.75577C79.7851 9.75577 79.5718 9.71699 79.3391 9.71699C77.8267 9.71699 76.6438 10.8416 76.1979 12.2572H76.1591C76.1591 12.2572 76.1979 11.9275 76.1979 11.5591V9.85273H73.8322V19.7419ZM79.9324 14.7973C79.9324 17.8416 82.3562 19.9746 85.3812 19.9746C88.3867 19.9746 90.8105 17.8416 90.8105 14.7973C90.8105 11.7724 88.3867 9.62004 85.3618 9.62004C82.3562 9.62004 79.9324 11.7724 79.9324 14.7973ZM82.4338 14.7973C82.4338 12.9746 83.7717 11.7142 85.3812 11.7142C86.9712 11.7142 88.3091 12.9746 88.3091 14.7973C88.3091 16.6394 86.9712 17.8804 85.3812 17.8804C83.7717 17.8804 82.4338 16.6394 82.4338 14.7973ZM92.0127 19.7419H94.4753V15.2045C94.4753 14.7392 94.5141 14.2932 94.6499 13.886C95.0183 12.7031 95.9878 11.8693 97.3064 11.8693C98.5668 11.8693 98.877 12.6838 98.877 13.886V19.7419H101.32V13.3818C101.32 10.7641 100.079 9.62004 97.8881 9.62004C95.8909 9.62004 94.805 10.8416 94.3784 11.6754H94.3396C94.3396 11.6754 94.3784 11.3652 94.3784 10.9968V9.85273H92.0127V19.7419ZM103.129 8.16575H105.572V5.97461H103.129V8.16575ZM103.129 19.7419H105.591V9.85273H103.129V19.7419ZM106.805 14.7973C106.805 17.6671 108.899 19.9746 112.176 19.9746C114.833 19.9746 116.248 18.3652 116.248 18.3652L115.298 16.62C115.298 16.62 114.057 17.8804 112.39 17.8804C110.509 17.8804 109.307 16.4455 109.307 14.7779C109.307 13.091 110.489 11.7142 112.312 11.7142C113.863 11.7142 114.891 12.7807 114.891 12.7807L115.977 11.0937C115.977 11.0937 114.755 9.62004 112.176 9.62004C108.899 9.62004 106.805 11.9857 106.805 14.7973Z" fill="white"/>
<path d="M26.7463 1.21546L33.4032 21.9426C33.7661 23.0727 32.9232 24.2288 31.7362 24.2288H26.8411C26.0783 24.2288 25.4033 23.7349 25.1724 23.0078L18.5912 2.2807C18.2327 1.15171 19.0754 0 20.2599 0H25.0793C25.84 0 26.5137 0.491194 26.7463 1.21546Z" fill="#3CD278"/>
<g filter="url(#filter0_i_11594_5822)">
<path d="M20.3705 16.5455L15.6765 1.50975C15.3961 0.611608 14.5644 0 13.6235 0C12.4783 0 11.5339 0.897464 11.4756 2.04122L10.903 13.2798C10.8826 13.6789 10.9308 14.0786 11.0453 14.4616L13.5935 22.9797C13.8152 23.721 14.4972 24.2288 15.2709 24.2288H17.6396C18.4017 24.2288 19.0762 23.7359 19.3077 23.0098L20.361 19.7063C20.6887 18.6787 20.692 17.5751 20.3705 16.5455Z" fill="#F4F4F4"/>
<path d="M20.3705 16.5455L15.6765 1.50975C15.3961 0.611608 14.5644 0 13.6235 0C12.4783 0 11.5339 0.897464 11.4756 2.04122L10.903 13.2798C10.8826 13.6789 10.9308 14.0786 11.0453 14.4616L13.5935 22.9797C13.8152 23.721 14.4972 24.2288 15.2709 24.2288H17.6396C18.4017 24.2288 19.0762 23.7359 19.3077 23.0098L20.361 19.7063C20.6887 18.6787 20.692 17.5751 20.3705 16.5455Z" fill="url(#paint0_linear_11594_5822)"/>
</g>
<path d="M8.8906 0H13.7118C14.8924 0 15.7346 1.14456 15.3834 2.27169L8.86981 23.1757C8.64185 23.9073 7.96458 24.4057 7.19824 24.4057H2.37706C1.19647 24.4057 0.354275 23.2611 0.705483 22.134L7.21903 1.22999C7.44703 0.49836 8.1243 0 8.8906 0Z" fill="#3CD278"/>
</g>
<defs>
<filter id="filter0_i_11594_5822" x="6.89844" y="0" width="13.7109" height="27.229" filterUnits="userSpaceOnUse" color-interpolation-filters="sRGB">
<feFlood flood-opacity="0" result="BackgroundImageFix"/>
<feBlend mode="normal" in="SourceGraphic" in2="BackgroundImageFix" result="shape"/>
<feColorMatrix in="SourceAlpha" type="matrix" values="0 0 0 0 0 0 0 0 0 0 0 0 0 0 0 0 0 0 127 0" result="hardAlpha"/>
<feOffset dx="-4" dy="3"/>
<feGaussianBlur stdDeviation="2"/>
<feComposite in2="hardAlpha" operator="arithmetic" k2="-1" k3="1"/>
<feColorMatrix type="matrix" values="0 0 0 0 0.904167 0 0 0 0 0.892865 0 0 0 0 0.892865 0 0 0 0.4 0"/>
<feBlend mode="normal" in2="shape" result="effect1_innerShadow_11594_5822"/>
</filter>
<linearGradient id="paint0_linear_11594_5822" x1="12.6894" y1="10.7239" x2="21.4436" y2="13.3502" gradientUnits="userSpaceOnUse">
<stop stop-opacity="0.2"/>
<stop offset="0.911458" stop-color="white" stop-opacity="0"/>
</linearGradient>
<clipPath id="clip0_11594_5822">
<rect width="116" height="25" fill="white"/>
</clipPath>
</defs>
</svg>